<svg xmlns="http://www.w3.org/2000/svg" viewBox="0 0 357 142" role="img" aria-label="MEIA10">
<g transform="translate(6 6)">
  <path d="M20.60 100L6.30 100L6.30 30.30L27.20 30.30L44.40 79.40L41.80 79.40L59 30.30L79.90 30.30L79.90 100L65.60 100L65.60 47.10L66.90 47.30L50.10 93.80L36.20 93.80L19.30 47.30L20.60 47.10L20.60 100ZM137.60 100L91 100L91 30.30L137.60 30.30L137.60 43.10L105.30 43.10L105.30 57.80L135.70 57.80L135.70 70.60L105.30 70.60L105.30 87.20L137.60 87.20L137.60 100ZM161.30 100L147 100L147 30.30L161.30 30.30L161.30 100ZM182.20 100L166.60 100L195.10 30.30L205.70 30.30L234.20 100L218.60 100L200.50 51.50L182.20 100ZM214.80 87.30L186.20 87.30L190.70 74.50L210.20 74.50L214.80 87.30Z" fill="#F0EEE6"/>
  <g transform="translate(239.20 0)"><path d="M40.20 100L26.50 100L26.50 45.20L30.40 52L8.70 52L8.70 41.10L19.10 41.10Q22.70 41.10 24.60 39.50Q26.50 37.90 26.50 33.90L26.50 33.90L26.50 30.30L40.20 30.30L40.20 100ZM81 101L81 101Q74.30 101 69.80 98.65Q65.30 96.30 62.60 92.40Q59.90 88.50 58.50 83.75Q57.10 79 56.65 74.05Q56.20 69.10 56.20 64.70L56.20 64.70Q56.20 60.60 56.65 55.80Q57.10 51 58.45 46.30Q59.80 41.60 62.50 37.75Q65.20 33.90 69.70 31.55Q74.20 29.20 81 29.20L81 29.20Q87.80 29.20 92.30 31.50Q96.80 33.80 99.50 37.70Q102.20 41.60 103.55 46.30Q104.90 51 105.35 55.80Q105.80 60.60 105.80 64.80L105.80 64.80Q105.80 69.20 105.35 74.15Q104.90 79.10 103.50 83.85Q102.10 88.60 99.40 92.45Q96.70 96.30 92.20 98.65Q87.70 101 81 101ZM81 87.80L81 87.80Q85.60 87.80 87.90 84.70Q90.20 81.60 90.95 76.40Q91.70 71.20 91.70 65.20L91.70 65.20Q91.70 58.90 90.95 53.70Q90.20 48.50 87.90 45.45Q85.60 42.40 81 42.40L81 42.40Q77.50 42.40 75.35 44.20Q73.20 46 72.15 49.15Q71.10 52.30 70.70 56.45Q70.30 60.60 70.30 65.20L70.30 65.20Q70.30 69.60 70.70 73.70Q71.10 77.80 72.15 80.95Q73.20 84.10 75.35 85.95Q77.50 87.80 81 87.80Z" fill="#C6F24E"/></g>
</g>
</svg>