<svg xmlns="http://www.w3.org/2000/svg" viewBox="0 0 512 512" width="1024" height="1024">
<g transform="translate(0 0) scale(1)">
    <clipPath id="fld"><rect x="56" y="126" width="400" height="260" rx="28"/></clipPath>
    <g clip-path="url(#fld)"><rect x="56" y="126" width="33.3" height="260" fill="#C6F24E" opacity="0.13"/><rect x="122.6" y="126" width="33.3" height="260" fill="#C6F24E" opacity="0.13"/><rect x="189.2" y="126" width="33.3" height="260" fill="#C6F24E" opacity="0.13"/><rect x="255.79999999999998" y="126" width="33.3" height="260" fill="#C6F24E" opacity="0.13"/><rect x="322.4" y="126" width="33.3" height="260" fill="#C6F24E" opacity="0.13"/><rect x="389" y="126" width="33.3" height="260" fill="#C6F24E" opacity="0.13"/></g>
    <rect x="56" y="126" width="400" height="260" rx="28" fill="none" stroke="#C6F24E" stroke-width="22"/>
    <line x1="256" y1="126" x2="256" y2="170" stroke="#C6F24E" stroke-width="14"/>
    <line x1="256" y1="342" x2="256" y2="386" stroke="#C6F24E" stroke-width="14"/>
    <rect x="56" y="212" width="46" height="88" fill="#1B1A16" stroke="#C6F24E" stroke-width="14"/>
    <rect x="410" y="212" width="46" height="88" fill="#1B1A16" stroke="#C6F24E" stroke-width="14"/>
    <g transform="translate(147.0 179.7) scale(1.1708)"><path d="M20.60 100L6.30 100L6.30 30.30L27.20 30.30L44.40 79.40L41.80 79.40L59 30.30L79.90 30.30L79.90 100L65.60 100L65.60 47.10L66.90 47.30L50.10 93.80L36.20 93.80L19.30 47.30L20.60 47.10L20.60 100ZM122.40 100L108.70 100L108.70 45.20L112.60 52L90.90 52L90.90 41.10L101.30 41.10Q104.90 41.10 106.80 39.50Q108.70 37.90 108.70 33.90L108.70 33.90L108.70 30.30L122.40 30.30L122.40 100ZM162.20 101L162.20 101Q155.50 101 151 98.65Q146.50 96.30 143.80 92.40Q141.10 88.50 139.70 83.75Q138.30 79 137.85 74.05Q137.40 69.10 137.40 64.70L137.40 64.70Q137.40 60.60 137.85 55.80Q138.30 51 139.65 46.30Q141 41.60 143.70 37.75Q146.40 33.90 150.90 31.55Q155.40 29.20 162.20 29.20L162.20 29.20Q169 29.20 173.50 31.50Q178 33.80 180.70 37.70Q183.40 41.60 184.75 46.30Q186.10 51 186.55 55.80Q187 60.60 187 64.80L187 64.80Q187 69.20 186.55 74.15Q186.10 79.10 184.70 83.85Q183.30 88.60 180.60 92.45Q177.90 96.30 173.40 98.65Q168.90 101 162.20 101ZM162.20 87.80L162.20 87.80Q166.80 87.80 169.10 84.70Q171.40 81.60 172.15 76.40Q172.90 71.20 172.90 65.20L172.90 65.20Q172.90 58.90 172.15 53.70Q171.40 48.50 169.10 45.45Q166.80 42.40 162.20 42.40L162.20 42.40Q158.70 42.40 156.55 44.20Q154.40 46 153.35 49.15Q152.30 52.30 151.90 56.45Q151.50 60.60 151.50 65.20L151.50 65.20Q151.50 69.60 151.90 73.70Q152.30 77.80 153.35 80.95Q154.40 84.10 156.55 85.95Q158.70 87.80 162.20 87.80Z" fill="#C6F24E"/></g></g>
</svg>