<svg xmlns="http://www.w3.org/2000/svg" viewBox="0 0 512 512" width="512" height="512">
<defs><radialGradient id="tile-bg" cx="40%" cy="32%" r="90%">
  <stop offset="0" stop-color="#1B2530"/><stop offset="1" stop-color="#0A0E13"/>
</radialGradient></defs>
<rect width="512" height="512" rx="123" fill="url(#tile-bg)"/>
<g transform="translate(20.47999999999999 20.47999999999999) scale(0.92)">
    <defs>
      <linearGradient id="m10-lime" x1="0" y1="0" x2="0" y2="1">
        <stop offset="0" stop-color="#E4FF7A"/><stop offset="0.5" stop-color="#C4F146"/><stop offset="1" stop-color="#7FA828"/>
      </linearGradient>
      <radialGradient id="m10-ball" cx="36%" cy="28%" r="95%">
        <stop offset="0" stop-color="#232F3A"/><stop offset="0.65" stop-color="#121B24"/><stop offset="1" stop-color="#080C10"/>
      </radialGradient>
      <clipPath id="m10-clip"><circle cx="256" cy="256" r="157"/></clipPath>
    </defs>
    <circle cx="256" cy="256" r="205" fill="none" stroke="url(#m10-lime)" stroke-width="24"/>
    <g clip-path="url(#m10-clip)">
      <circle cx="256" cy="256" r="157" fill="url(#m10-ball)"/>
      <polygon points="256,170.7 307.2,208.2 370.7,148.8 256,99" fill="#141F2A"/>
      <polygon points="307.2,208.2 286.7,269.7 399.4,319.8 370.7,148.8" fill="#0E1721"/>
      <polygon points="286.7,269.7 225.3,269.7 112.6,319.8 399.4,319.8" fill="#141F2A"/>
      <polygon points="225.3,269.7 204.8,208.2 141.3,148.8 112.6,319.8" fill="#0E1721"/>
      <polygon points="204.8,208.2 256,170.7 256,99 141.3,148.8" fill="#141F2A"/>
      <polygon points="256,170.7 307.2,208.2 286.7,269.7 225.3,269.7 204.8,208.2" fill="#05080B"/>
      <polygon points="256,170.7 307.2,208.2 286.7,269.7 225.3,269.7 204.8,208.2" fill="none" stroke="url(#m10-lime)" stroke-width="8.5" stroke-linejoin="round"/>
      <path d="M256 170.7 L256 136.5 M204.8 208.2 L170.7 194.6 M307.2 208.2 L341.3 194.6 M225.3 269.7 L204.8 314 M286.7 269.7 L307.2 314" fill="none" stroke="url(#m10-lime)" stroke-width="8.5" stroke-linecap="round"/>
      <circle cx="256" cy="218.5" r="13.7" fill="#C4F146"/>
      <ellipse cx="204.8" cy="180.9" rx="51" ry="27" fill="#ffffff" opacity="0.08"/>
    </g>
    <g transform="translate(204.8 384)"><path d="M9.72 0L3.69 0L3.69-36.24L12.53-36.24L22.67-9.15L21.58-9.15L31.77-36.24L40.56-36.24L40.56 0L34.53 0L34.53-29.22L35.05-29.12L25.06-3.17L19.19-3.17L9.15-29.12L9.72-29.22L9.72 0Z" fill="#FFFFFF"/></g>
    <g transform="translate(249.0 384)"><path d="M20.23 0L14.46 0L14.46-28.86L16.17-25.95L5.10-25.95L5.10-30.58L10.92-30.58Q12.69-30.58 13.57-31.30Q14.46-32.03 14.46-33.90L14.46-33.90L14.46-36.24L20.23-36.24L20.23 0ZM43.73 0.47L43.73 0.47Q40.46 0.47 38.25-0.70Q36.04-1.87 34.66-3.85Q33.28-5.82 32.55-8.27Q31.82-10.71 31.59-13.31Q31.36-15.91 31.36-18.30L31.36-18.30Q31.36-20.59 31.59-23.14Q31.82-25.69 32.53-28.11Q33.23-30.52 34.58-32.47Q35.93-34.42 38.17-35.59Q40.40-36.76 43.63-36.76L43.63-36.76Q46.85-36.76 49.06-35.62Q51.27-34.48 52.65-32.55Q54.03-30.63 54.76-28.24Q55.48-25.84 55.74-23.24Q56.00-20.64 56.00-18.25L56.00-18.25Q56.00-15.76 55.74-13.13Q55.48-10.50 54.73-8.09Q53.98-5.67 52.62-3.74Q51.27-1.82 49.09-0.68Q46.90 0.47 43.73 0.47ZM43.73-5.10L43.73-5.10Q46.28-5.10 47.66-6.84Q49.04-8.58 49.58-11.54Q50.13-14.51 50.13-18.04L50.13-18.04Q50.13-21.84 49.58-24.80Q49.04-27.77 47.63-29.51Q46.23-31.25 43.63-31.25L43.63-31.25Q41.65-31.25 40.40-30.21Q39.16-29.17 38.48-27.33Q37.80-25.48 37.52-23.11Q37.23-20.75 37.23-18.10L37.23-18.10Q37.23-15.55 37.52-13.21Q37.80-10.87 38.48-9.05Q39.16-7.23 40.43-6.16Q41.70-5.10 43.73-5.10Z" fill="#C4F146"/></g></g>
</svg>